<svg 
    xmlns:dc="http://purl.org/dc/elements/1.1/" 
    xmlns:cc="http://creativecommons.org/ns#" 
    xmlns:rdf="http://www.w3.org/1999/02/22-rdf-syntax-ns#" 
    xmlns:svg="http://www.w3.org/2000/svg" 
    xmlns="http://www.w3.org/2000/svg" 
    version="1.1" 
    viewBox="0 0 100 125">
    <path 
        d="m 44.25,5 -2.4375,7.46875 c -3.941607,0.950323 -7.663663,2.502405 -11.03125,4.5625 l -7,-3.5625 -9.40625,9.40625 3.5625,7 c -2.060095,3.373963 -3.612178,7.089643 -4.5625,11.03125 l -7.46875,2.4375 0,13.3125 7.46875,2.4375 c 0.950322,3.941607 2.502405,7.626035 4.5625,11 l -3.5625,7.03125 9.40625,9.40625 7,-3.5625 c 3.367587,2.060095 7.089643,3.612179 11.03125,4.5625 L 44.25,95 l 6.65625,0 0,-18.90625 c -14.414287,0 -26.125,-11.679462 -26.125,-26.09375 0,-14.414285 11.710713,-26.09375 26.125,-26.09375 L 50.90625,5 44.25,5 z m 9.84375,0 0,90 14.1875,0 C 68.083531,91.906669 67.843021,86.546564 69.125,86.40625 73.411018,85.959788 78.180856,86.557579 81.9375,84 c 3.278294,-2.232301 4.192622,-6.511851 3.9375,-10.28125 -0.05102,-0.701581 -0.452222,-1.506974 0.28125,-2.09375 1.179929,-0.9567 1.363567,-2.533037 0.6875,-4.3125 1.530721,-1.109772 2.299192,-3.636365 1.09375,-5.25 -0.191342,-0.248742 -0.751327,-0.792086 -0.0625,-0.875 2.481043,-0.299765 5.392169,-1.552745 6.09375,-4.21875 0.66969,-2.544822 -1.230777,-4.828301 -2.5,-6.84375 -1.645524,-2.621359 -4.401726,-4.645832 -5.25,-7.65625 C 85.561815,40.140779 86.687522,37.680019 86.375,35.25 84.200097,18.265379 74.331156,5.6378003 54.09375,5 z" 
        fill="#38B000" 
    />
</svg>